# This file uses meters as units for non-parametric coordinates.

mtllib Apple_naklon.mtl
g default
v 6.241384 5.242898 10.021030
v 3.947320 5.570869 6.252226
v 1.030392 3.041945 5.835470
v -2.607215 3.187138 5.957624
v -5.340267 5.336589 7.341865
v -7.334351 5.784768 10.476924
v -7.157248 7.541171 13.663123
v -4.785923 10.829804 15.433968
v -1.946256 9.742124 17.848684
v 1.691351 9.596931 17.726528
v 4.467806 9.479200 15.219884
v 6.418486 6.999301 13.207231
v 11.946076 4.394012 8.399738
v 7.666317 3.448498 2.280961
v 2.299897 0.319779 0.651754
v -4.433758 0.588551 0.877880
v -9.511602 3.695218 3.922130
v -13.184262 5.397080 9.243652
v -12.856422 8.648396 15.141697
v -8.499981 13.183427 19.277479
v -3.210242 12.722630 22.889683
v 3.523412 12.453858 22.663555
v 8.644335 11.363697 18.505306
v 12.273916 7.645329 14.297784
v 17.026361 6.075512 5.628368
v 10.990875 3.752717 -2.421041
v 3.470803 0.350083 -5.259702
v -5.991849 0.727782 -4.941932
v -13.139561 4.535059 -0.355403
v -18.288736 7.485100 6.814300
v -17.828032 12.054102 15.102688
v -11.727257 17.432995 21.463785
v -4.272471 17.779530 25.990755
v 5.190181 17.401833 25.672989
v 12.374569 15.311399 20.138004
v 17.487068 10.644514 13.916757
v 20.192690 10.133597 2.261687
v 13.078524 6.652087 -6.790788
v 4.250414 3.400097 -10.543434
v -6.878318 3.844296 -10.169717
v -15.293518 7.900728 -4.542961
v -21.340307 11.791369 3.656424
v -20.798487 17.164831 13.404142
v -13.639572 22.741039 21.299421
v -4.856211 23.898331 26.209263
v 6.272522 23.454132 25.835545
v 14.712861 20.574450 19.558704
v 20.734512 15.507059 12.009405
v 23.148558 14.444958 -1.166067
v 15.030119 9.829569 -11.120149
v 4.986866 6.774048 -15.753864
v -7.691162 7.280087 -15.328120
v -17.285685 11.536535 -8.716553
v -24.166489 16.333519 0.422839
v -23.549236 22.455051 11.527594
v -15.407557 28.158358 20.880661
v -5.387546 30.125957 26.115391
v 7.290483 29.619921 25.689644
v 16.898062 25.974640 18.740444
v 23.765810 20.566490 9.938686
v 25.823130 20.530872 -5.457574
v 16.807306 14.671537 -16.082132
v 5.689406 12.027042 -21.629341
v -8.365229 12.588028 -21.157368
v -19.010458 16.889362 -13.597377
v -26.629478 22.624498 -3.696138
v -25.945204 29.410721 8.614392
v -16.935352 34.990498 19.393385
v -5.811480 37.914551 24.786161
v 8.243155 37.353561 24.314182
v 18.885029 32.895184 16.840956
v 26.507404 27.317095 6.852958
v 25.808542 25.796259 -8.319973
v 16.825058 19.415070 -18.588440
v 5.773299 17.334021 -24.412645
v -8.212589 17.892263 -23.942976
v -18.812355 21.863293 -16.249113
v -26.387505 27.879642 -6.567155
v -25.706577 34.632671 5.683161
v -16.752556 39.634644 16.713558
v -5.671333 43.094906 21.775829
v 8.314555 42.536663 21.306160
v 18.897770 37.790825 14.040337
v 26.489471 32.549286 3.930343
v 23.325312 31.238638 -10.377103
v 15.232467 24.905676 -19.285217
v 5.304674 23.627308 -24.851601
v -7.274886 24.129412 -24.429167
v -16.815935 27.367775 -17.324778
v -23.622253 33.112530 -8.800537
v -23.009800 39.186520 2.217969
v -14.968809 43.092113 12.467057
v -4.989161 46.797848 16.692465
v 7.590399 46.295742 16.270029
v 17.102318 41.693741 9.918970
v 23.937767 37.312626 0.641402
v 18.545992 36.068985 -11.262259
v 12.138074 30.391966 -17.927605
v 4.309298 30.055866 -22.697430
v -5.628828 30.452541 -22.363693
v -13.174551 32.632370 -16.541946
v -18.543604 37.549400 -10.016737
v -18.059750 42.347984 -1.311877
v -11.721590 44.759644 7.157380
v -3.823057 48.361099 10.123289
v 6.115070 47.964424 9.789553
v 13.621604 43.950195 4.981206
v 19.029844 40.867569 -2.557400
v 13.220985 38.663467 -10.730369
v 8.675937 33.995380 -15.082273
v 3.154124 34.411552 -18.816254
v -3.873194 34.692047 -18.580265
v -9.216671 35.866108 -14.260754
v -13.005319 39.710281 -9.849651
v -12.663181 43.103390 -3.694386
v -8.195394 44.154861 2.655486
v -2.596319 47.355305 4.391499
v 4.430998 47.074814 4.155510
v 9.731071 43.869019 0.958412
v 13.563123 42.056580 -4.575103
v 7.835413 36.825500 -7.762274
v 5.151310 33.622993 -10.071224
v 1.911937 34.323616 -12.520117
v -2.223030 34.488663 -12.381259
v -5.372673 34.923470 -9.698161
v -7.596495 37.441460 -7.244049
v -7.395176 39.438011 -3.622208
v -4.776006 39.600971 0.365911
v -1.471700 41.939896 1.135634
v 2.663267 41.774849 0.996775
v 5.776432 39.632492 -0.743000
v 8.036732 38.822052 -4.140434
v -0.399876 9.109674 10.340742
v 4.246330 34.856739 -5.379107
v 2.798555 32.705147 -6.376054
v 0.171092 35.836823 -4.424425
v 1.071796 33.515915 -7.928947
v -1.144232 33.604374 -7.854532
v -2.837426 33.592857 -6.281503
v -4.024001 35.186848 -5.101377
v -3.916110 36.256847 -3.160346
v -2.521733 35.908886 -0.782542
v -0.741577 37.597664 -0.610502
v 1.474452 37.509216 -0.684921
v 3.137648 36.116535 -1.482217
v 4.354221 35.926743 -3.438076
v 1.927251 34.385262 -4.442015
v -0.081469 34.207870 -4.840800
v -1.462347 34.966682 -3.520635
v -0.834505 35.902885 -1.801686
v 1.174215 36.080280 -1.402901
v 2.555093 35.321468 -2.723066
v 4.594906 48.942165 -12.264441
v 2.235073 48.733765 -12.732931
v 0.612826 49.625214 -11.182009
v 1.350411 50.725060 -9.162597
v 3.710244 50.933464 -8.694106
v 5.332492 50.042015 -10.245028
v 1.708406 39.943413 -7.092277
v 0.185059 39.808884 -7.394702
v -0.862154 40.384342 -6.393532
v -0.386019 41.094330 -5.089937
v 1.137329 41.228859 -4.787512
v 2.184541 40.653400 -5.788682
v 2.323179 43.121929 -8.712714
v 0.799831 42.987400 -9.015140
v -0.247381 43.562859 -8.013970
v 0.228754 44.272846 -6.710376
v 1.752101 44.407375 -6.407950
v 2.799313 43.831917 -7.409120
vt 0.431183 0.355412
vt 0.444703 0.377978
vt 0.420592 0.515139
vt 0.399051 0.364773
vt 0.441518 0.561421
vt 0.408917 0.552763
vt 0.442172 0.584467
vt 0.409355 0.593501
vt 0.454328 0.602783
vt 0.422446 0.744460
vt 0.436800 0.790633
vt 0.404840 0.779395
vt 0.435490 0.813696
vt 0.402473 0.819885
vt 0.446763 0.837360
vt 0.383164 0.061409
vt 0.408185 0.105189
vt 0.374823 0.099589
vt 0.410960 0.127948
vt 0.379114 0.139774
vt 0.424784 0.145030
vt 0.411008 0.287457
vt 0.430149 0.332227
vt 0.397168 0.324029
vt 0.385386 0.493209
vt 0.367613 0.373861
vt 0.376746 0.544510
vt 0.376704 0.600221
vt 0.391472 0.718399
vt 0.372866 0.770752
vt 0.370075 0.825945
vt 0.346182 0.043206
vt 0.341806 0.094309
vt 0.347252 0.149269
vt 0.377163 0.264410
vt 0.364393 0.318417
vt 0.348635 0.477518
vt 0.335186 0.381422
vt 0.342922 0.538508
vt 0.343879 0.606633
vt 0.354976 0.700409
vt 0.340035 0.762926
vt 0.336738 0.830554
vt 0.308282 0.031467
vt 0.307179 0.091248
vt 0.315230 0.158462
vt 0.338373 0.250153
vt 0.330802 0.313713
vt 0.309887 0.466632
vt 0.301774 0.387131
vt 0.308622 0.534756
vt 0.309836 0.609688
vt 0.316775 0.684381
vt 0.306453 0.758580
vt 0.302455 0.833550
vt 0.268800 0.024869
vt 0.272012 0.090068
vt 0.281793 0.164575
vt 0.297822 0.238212
vt 0.296755 0.312666
vt 0.263350 0.468888
vt 0.257399 0.390360
vt 0.263961 0.534785
vt 0.265618 0.610376
vt 0.267780 0.683423
vt 0.263362 0.756517
vt 0.258356 0.833193
vt 0.218856 0.021863
vt 0.227519 0.093032
vt 0.238157 0.169731
vt 0.249031 0.242549
vt 0.253444 0.315200
vt 0.227341 0.470370
vt 0.224078 0.391949
vt 0.230101 0.535950
vt 0.232593 0.610064
vt 0.229755 0.682818
vt 0.230790 0.755764
vt 0.225454 0.830276
vt 0.181210 0.028618
vt 0.194324 0.098594
vt 0.205536 0.173414
vt 0.211217 0.246447
vt 0.220808 0.318440
vt 0.187582 0.471600
vt 0.190125 0.391742
vt 0.195340 0.539355
vt 0.198068 0.609802
vt 0.190165 0.682198
vt 0.196160 0.754743
vt 0.191553 0.824408
vt 0.142744 0.044753
vt 0.160129 0.108043
vt 0.171392 0.177804
vt 0.171896 0.251008
vt 0.186197 0.322080
vt 0.145492 0.493928
vt 0.153812 0.387938
vt 0.158481 0.547689
vt 0.161543 0.606504
vt 0.147779 0.701362
vt 0.159192 0.756978
vt 0.155773 0.815056
vt 0.103914 0.071952
vt 0.124445 0.122095
vt 0.134913 0.179749
vt 0.131523 0.275999
vt 0.149730 0.329583
vt 0.111561 0.520375
vt 0.122140 0.382561
vt 0.127047 0.558018
vt 0.129401 0.601068
vt 0.113843 0.723516
vt 0.126820 0.762025
vt 0.124924 0.805093
vt 0.073865 0.102380
vt 0.094502 0.136957
vt 0.102457 0.179041
vt 0.100373 0.302932
vt 0.118274 0.339332
vt 0.077677 0.547626
vt 0.086342 0.378645
vt 0.091504 0.567573
vt 0.093375 0.594420
vt 0.079187 0.747091
vt 0.090560 0.768965
vt 0.089885 0.796082
vt 0.043968 0.133801
vt 0.060481 0.151500
vt 0.065958 0.177693
vt 0.068998 0.331458
vt 0.083280 0.351536
vt 0.474466 0.343610
vt 0.058213 0.375787
vt 0.054786 0.563509
vt 0.032799 0.370338
vt 0.063995 0.575339
vt 0.065529 0.589883
vt 0.055570 0.762611
vt 0.062878 0.774659
vt 0.062384 0.789259
vt 0.023483 0.152664
vt 0.034270 0.163058
vt 0.037803 0.177202
vt 0.047709 0.350319
vt 0.056649 0.361212
vt 0.032870 0.190452
vt 0.012304 0.176968
vt 0.037991 0.780250
vt 0.040301 0.586022
vt 0.057988 0.201178
vt 0.052296 0.803047
vt 0.074364 0.819997
vt 0.058785 0.602312
vt 0.082252 0.616578
vt 0.050197 0.390902
vt 0.074395 0.404661
vt 0.094150 0.219022
vt 0.106206 0.848679
vt 0.115932 0.639542
vt 0.109821 0.428930
vt 0.129187 0.236590
vt 0.137833 0.876494
vt 0.148814 0.661991
vt 0.144913 0.452546
vt 0.485701 0.571332
vt 0.479765 0.806186
vt 0.453119 0.111023
vt 0.441478 0.313340
vt 0.417334 0.084234
vt 0.449976 0.772983
vt 0.452510 0.541291
vt 0.334097 0.220318
vt 0.355609 0.670025
vt 0.347413 0.452454
vt 0.368869 0.200807
vt 0.379476 0.885969
vt 0.392808 0.653745
vt 0.382582 0.433585
vt 0.398319 0.174049
vt 0.414636 0.864119
vt 0.425061 0.629534
vt 0.415409 0.408037
vt 0.216664 0.913944
vt 0.177748 0.900653
vt 0.254332 0.917824
vt 0.303772 0.910763
vt 0.342621 0.900876
vt 0.079443 0.903477
vt 0.079454 0.970485
vt 0.127836 0.970477
vt 0.127825 0.903470
vt 0.079452 0.956859
vt 0.127834 0.956851
vt 0.079449 0.943561
vt 0.127832 0.943553
vt 0.079447 0.930214
vt 0.127829 0.930206
vt 0.079445 0.916616
vt 0.127827 0.916608
vt 0.018844 0.903487
vt 0.018854 0.970495
vt 0.060683 0.970488
vt 0.060672 0.903480
vt 0.018852 0.956869
vt 0.060680 0.956862
vt 0.018850 0.943571
vt 0.060678 0.943564
vt 0.018848 0.930223
vt 0.060676 0.930217
vt 0.018846 0.916626
vt 0.060674 0.916619
vt 0.079456 0.984128
vt 0.175522 0.955594
vt 0.127838 0.984120
vt 0.060685 0.984131
vt 0.018857 0.984138
vt 0.161056 0.947240
vt 0.146587 0.955591
vt 0.146586 0.972296
vt 0.161051 0.980650
vt 0.175520 0.972299
vn -0.185910 -0.922280 0.338877
vn 0.019543 -0.895350 0.444933
vn 0.253529 -0.949147 0.186663
vn 0.229783 -0.935919 0.266938
vn 0.167067 -0.777755 0.605959
vn 0.173987 -0.959127 0.223167
vn -0.100740 -0.802241 0.588440
vn -0.202412 -0.957823 0.203971
vn -0.007596 -0.870374 0.492333
vn -0.300777 -0.928227 0.218923
vn 0.100044 -0.912574 0.396484
vn -0.318770 -0.893883 0.315213
vn 0.149473 -0.783327 0.603371
vn -0.265074 -0.716101 0.645705
vn -0.056872 -0.852032 0.520392
vn -0.287786 -0.654427 0.699217
vn -0.203355 -0.920931 0.332464
vn -0.209286 -0.693229 0.689662
vn 0.063780 -0.927891 0.367355
vn 0.167240 -0.688608 0.705585
vn -0.029792 -0.879748 0.474505
vn 0.266234 -0.688740 0.674356
vn -0.137004 -0.817558 0.559312
vn 0.283598 -0.752548 0.594343
vn 0.491910 -0.855524 -0.161564
vn 0.639102 -0.764406 0.085043
vn 0.192853 -0.946746 -0.257838
vn -0.297790 -0.919241 -0.257523
vn -0.569660 -0.811639 -0.129339
vn -0.707134 -0.694300 0.133824
vn -0.665206 -0.457569 0.590026
vn -0.516641 -0.302156 0.801114
vn -0.219038 -0.278984 0.934981
vn 0.272156 -0.280679 0.920408
vn 0.545040 -0.340826 0.766008
vn 0.681501 -0.505620 0.529061
vn 0.571905 -0.758170 -0.313214
vn 0.789965 -0.612786 -0.021190
vn 0.192249 -0.854595 -0.482398
vn -0.325330 -0.824914 -0.462253
vn -0.657271 -0.696898 -0.286931
vn -0.839689 -0.542266 0.029491
vn -0.809082 -0.282102 0.515563
vn -0.590653 -0.119433 0.798038
vn -0.211360 -0.039967 0.976591
vn 0.306465 -0.058168 0.950103
vn 0.639193 -0.149314 0.754412
vn 0.820824 -0.340815 0.458359
vn 0.608839 -0.686964 -0.396730
vn 0.850953 -0.519676 -0.076259
vn 0.187494 -0.787612 -0.586953
vn -0.333163 -0.756636 -0.562587
vn -0.691558 -0.623237 -0.365134
vn -0.893164 -0.448907 -0.027207
vn -0.865985 -0.183988 0.464992
vn -0.623722 -0.009683 0.781587
vn -0.202526 0.083977 0.975670
vn 0.318340 0.062793 0.945895
vn 0.677281 -0.045084 0.734342
vn 0.878341 -0.244937 0.410515
vn 0.656531 -0.522755 -0.543778
vn 0.921695 -0.333738 -0.197730
vn 0.198662 -0.625813 -0.754249
vn -0.346954 -0.595082 -0.724914
vn -0.732555 -0.459762 -0.501979
vn -0.954449 -0.261254 -0.144129
vn -0.928397 0.020003 0.371050
vn -0.663349 0.203642 0.720068
vn -0.205367 0.311960 0.927634
vn 0.340343 0.285624 0.895871
vn 0.726072 0.156315 0.669616
vn 0.947838 -0.048204 0.315086
vn 0.658674 -0.166377 -0.733803
vn 0.916749 0.025143 -0.398671
vn 0.211141 -0.259383 -0.942412
vn -0.339253 -0.236744 -0.910417
vn -0.719089 -0.116779 -0.685036
vn -0.936041 0.091199 -0.339869
vn -0.908078 0.380740 0.174445
vn -0.650393 0.554042 0.519641
vn -0.202444 0.666467 0.717522
vn 0.347727 0.633421 0.691277
vn 0.727149 0.494064 0.476608
vn 0.944515 0.305478 0.120728
vn 0.561687 0.197976 -0.803314
vn 0.757925 0.360615 -0.543605
vn 0.207814 0.139339 -0.968193
vn -0.289374 0.149553 -0.945461
vn -0.602100 0.232945 -0.763683
vn -0.769829 0.413571 -0.486130
vn -0.735768 0.676596 -0.029393
vn -0.540293 0.803456 0.250082
vn -0.185606 0.900219 0.393899
vn 0.311157 0.870144 0.382139
vn 0.623108 0.750433 0.220426
vn 0.791613 0.606127 -0.077193
vn 0.407416 0.496280 -0.766628
vn 0.499349 0.609174 -0.616082
vn 0.195415 0.487231 -0.851128
vn -0.215337 0.487682 -0.846048
vn -0.418311 0.526477 -0.740160
vn -0.509136 0.649128 -0.565166
vn -0.467928 0.861653 -0.196463
vn -0.377032 0.926003 -0.019099
vn -0.163948 0.985760 0.037388
vn 0.246440 0.968259 0.041726
vn 0.448628 0.892644 -0.043820
vn 0.540239 0.806813 -0.239155
vn 0.085052 0.836387 -0.541500
vn 0.002718 0.809241 -0.587471
vn 0.149752 0.868677 -0.472203
vn -0.068505 0.865307 -0.496540
vn -0.023158 0.856098 -0.516295
vn -0.005963 0.830939 -0.556332
vn 0.034385 0.927587 -0.372023
vn -0.047834 0.905815 -0.420964
vn -0.112684 0.866462 -0.486359
vn 0.105750 0.878123 -0.466602
vn 0.060490 0.891427 -0.449108
vn 0.043208 0.912491 -0.406810
vn -0.289912 0.946495 -0.141767
vn -0.531620 0.762173 -0.369423
vn 0.060926 0.994753 0.082180
vn 0.120488 0.991497 0.049149
vn 0.390564 0.913192 -0.116364
vn 0.545894 0.757731 -0.357553
vn 0.562868 0.700550 -0.438645
vn 0.323245 0.613834 -0.720222
vn -0.029817 0.461468 -0.886656
vn -0.088846 0.489637 -0.867388
vn -0.358305 0.596894 -0.717869
vn -0.514252 0.723404 -0.460686
vn -0.018696 -0.875159 0.483474
vn -0.549236 0.723584 -0.418050
vn -0.224618 0.944953 -0.237929
vn 0.018696 0.875159 -0.483474
vn 0.132938 0.986405 0.096607
vn 0.089017 0.994213 0.060137
vn 0.329640 0.925382 -0.187096
vn 0.553655 0.738887 -0.384073
vn 0.580088 0.720602 -0.379778
vn 0.259685 0.696527 -0.668890
vn -0.102312 0.447176 -0.888575
vn -0.057507 0.480752 -0.874969
vn -0.295746 0.661239 -0.689418
vn -0.522145 0.736078 -0.430759
vn 0.209252 -0.546379 -0.810977
vn 0.209618 -0.537619 -0.816717
vn 0.208267 -0.567433 -0.796646
vn 0.208267 -0.567433 -0.796646
vn -0.734495 -0.219390 -0.642172
vn -0.734303 -0.217598 -0.643001
vn -0.735468 -0.228901 -0.637723
vn -0.735468 -0.228901 -0.637723
vn -0.944599 0.255760 0.205716
vn -0.944836 0.254068 0.206724
vn -0.946031 0.245057 0.212068
vn -0.946031 0.245057 0.212068
vn -0.212300 0.412082 0.886068
vn -0.212325 0.402555 0.890431
vn -0.212288 0.379198 0.900634
vn -0.212288 0.379198 0.900635
vn 0.712549 0.085016 0.696452
vn 0.710942 0.077769 0.698937
vn 0.701565 0.038760 0.711551
vn 0.701565 0.038760 0.711551
vn 0.915366 -0.382372 -0.126080
vn 0.917392 -0.376067 -0.130254
vn 0.903527 -0.415838 -0.103529
vn 0.903527 -0.415838 -0.103529
vn 0.212293 -0.413767 -0.885285
vn 0.212293 -0.413767 -0.885285
vn 0.212162 -0.433037 -0.876052
vn 0.212135 -0.435777 -0.874698
vn -0.737411 -0.250863 -0.627131
vn -0.737411 -0.250863 -0.627131
vn -0.735792 -0.232248 -0.636138
vn -0.735669 -0.230970 -0.636744
vn -0.948398 0.224050 0.224374
vn -0.948398 0.224050 0.224374
vn -0.946277 0.243089 0.213230
vn -0.946427 0.241873 0.213947
vn -0.209681 0.536060 0.817725
vn -0.209681 0.536060 0.817725
vn -0.210435 0.515391 0.830716
vn -0.210347 0.517994 0.829118
vn 0.740023 0.373157 0.559571
vn 0.740023 0.373157 0.559571
vn 0.740530 0.312929 0.594719
vn 0.740606 0.316849 0.592545
vn 0.951010 -0.101756 -0.291934
vn 0.951010 -0.101756 -0.291934
vn 0.952107 -0.159222 -0.261036
vn 0.952034 -0.163148 -0.258871
vn 0.018695 0.875159 -0.483474
vn 0.018695 0.875159 -0.483474
vn 0.018695 0.875159 -0.483474
vn 0.018695 0.875159 -0.483474
vn 0.018695 0.875159 -0.483474
vn 0.018695 0.875159 -0.483474
s 1
g Apple
usemtl initialShadingGroup
f 1/1/1 2/2/2 14/183/3 13/4/4
f 2/172/2 3/5/5 15/6/6 14/3/3
f 3/5/5 4/7/7 16/8/8 15/6/6
f 4/7/7 5/9/9 17/182/10 16/8/8
f 5/171/9 6/11/11 18/12/12 17/10/10
f 6/11/11 7/13/13 19/14/14 18/12/12
f 7/13/13 8/15/15 20/181/16 19/14/14
f 8/170/15 9/17/17 21/18/18 20/16/16
f 9/17/17 10/19/19 22/20/20 21/18/18
f 10/19/19 11/21/21 23/180/22 22/20/20
f 11/169/21 12/23/23 24/24/24 23/22/22
f 12/23/23 1/1/1 13/4/4 24/24/24
f 13/4/4 14/183/3 26/179/25 25/26/26
f 14/3/3 15/6/6 27/27/27 26/25/25
f 15/6/6 16/8/8 28/28/28 27/27/27
f 16/8/8 17/182/10 29/178/29 28/28/28
f 17/10/10 18/12/12 30/30/30 29/29/29
f 18/12/12 19/14/14 31/31/31 30/30/30
f 19/14/14 20/181/16 32/177/32 31/31/31
f 20/16/16 21/18/18 33/33/33 32/32/32
f 21/18/18 22/20/20 34/34/34 33/33/33
f 22/20/20 23/180/22 35/176/35 34/34/34
f 23/22/22 24/24/24 36/36/36 35/35/35
f 24/24/24 13/4/4 25/26/26 36/36/36
f 25/26/26 26/179/25 38/175/37 37/38/38
f 26/25/25 27/27/27 39/39/39 38/37/37
f 27/27/27 28/28/28 40/40/40 39/39/39
f 28/28/28 29/178/29 41/174/41 40/40/40
f 29/29/29 30/30/30 42/42/42 41/41/41
f 30/30/30 31/31/31 43/43/43 42/42/42
f 31/31/31 32/177/32 44/188/44 43/43/43
f 32/32/32 33/33/33 45/45/45 44/44/44
f 33/33/33 34/34/34 46/46/46 45/45/45
f 34/34/34 35/176/35 47/173/47 46/46/46
f 35/35/35 36/36/36 48/48/48 47/47/47
f 36/36/36 25/26/26 37/38/38 48/48/48
f 37/38/38 38/175/37 50/49/49 49/50/50
f 38/37/37 39/39/39 51/51/51 50/49/49
f 39/39/39 40/40/40 52/52/52 51/51/51
f 40/40/40 41/174/41 53/53/53 52/52/52
f 41/41/41 42/42/42 54/54/54 53/53/53
f 42/42/42 43/43/43 55/55/55 54/54/54
f 43/43/43 44/188/44 56/187/56 55/55/55
f 44/44/44 45/45/45 57/57/57 56/56/56
f 45/45/45 46/46/46 58/58/58 57/57/57
f 46/46/46 47/173/47 59/59/59 58/58/58
f 47/47/47 48/48/48 60/60/60 59/59/59
f 48/48/48 37/38/38 49/50/50 60/60/60
f 49/50/50 50/49/49 62/61/61 61/62/62
f 50/49/49 51/51/51 63/63/63 62/61/61
f 51/51/51 52/52/52 64/64/64 63/63/63
f 52/52/52 53/53/53 65/65/65 64/64/64
f 53/53/53 54/54/54 66/66/66 65/65/65
f 54/54/54 55/55/55 67/67/67 66/66/66
f 55/55/55 56/187/56 68/186/68 67/67/67
f 56/56/56 57/57/57 69/69/69 68/68/68
f 57/57/57 58/58/58 70/70/70 69/69/69
f 58/58/58 59/59/59 71/71/71 70/70/70
f 59/59/59 60/60/60 72/72/72 71/71/71
f 60/60/60 49/50/50 61/62/62 72/72/72
f 61/62/62 62/61/61 74/73/73 73/74/74
f 62/61/61 63/63/63 75/75/75 74/73/73
f 63/63/63 64/64/64 76/76/76 75/75/75
f 64/64/64 65/65/65 77/77/77 76/76/76
f 65/65/65 66/66/66 78/78/78 77/77/77
f 66/66/66 67/67/67 79/79/79 78/78/78
f 67/67/67 68/186/68 80/184/80 79/79/79
f 68/68/68 69/69/69 81/81/81 80/80/80
f 69/69/69 70/70/70 82/82/82 81/81/81
f 70/70/70 71/71/71 83/83/83 82/82/82
f 71/71/71 72/72/72 84/84/84 83/83/83
f 72/72/72 61/62/62 73/74/74 84/84/84
f 73/74/74 74/73/73 86/85/85 85/86/86
f 74/73/73 75/75/75 87/87/87 86/85/85
f 75/75/75 76/76/76 88/88/88 87/87/87
f 76/76/76 77/77/77 89/89/89 88/88/88
f 77/77/77 78/78/78 90/90/90 89/89/89
f 78/78/78 79/79/79 91/91/91 90/90/90
f 79/79/79 80/184/80 92/185/92 91/91/91
f 80/80/80 81/81/81 93/93/93 92/92/92
f 81/81/81 82/82/82 94/94/94 93/93/93
f 82/82/82 83/83/83 95/95/95 94/94/94
f 83/83/83 84/84/84 96/96/96 95/95/95
f 84/84/84 73/74/74 85/86/86 96/96/96
f 85/86/86 86/85/85 98/165/97 97/98/98
f 86/85/85 87/87/87 99/99/99 98/97/97
f 87/87/87 88/88/88 100/100/100 99/99/99
f 88/88/88 89/89/89 101/164/101 100/100/100
f 89/89/89 90/90/90 102/102/102 101/101/101
f 90/90/90 91/91/91 103/103/103 102/102/102
f 91/91/91 92/185/92 104/163/104 103/103/103
f 92/92/92 93/93/93 105/105/105 104/104/104
f 93/93/93 94/94/94 106/106/106 105/105/105
f 94/94/94 95/95/95 107/162/107 106/106/106
f 95/95/95 96/96/96 108/108/108 107/107/107
f 96/96/96 85/86/86 97/98/98 108/108/108
f 97/98/98 98/165/97 110/161/109 109/110/110
f 98/97/97 99/99/99 111/111/111 110/109/109
f 99/99/99 100/100/100 112/112/112 111/111/111
f 100/100/100 101/164/101 113/160/113 112/112/112
f 101/101/101 102/102/102 114/114/114 113/113/113
f 102/102/102 103/103/103 115/115/115 114/114/114
f 103/103/103 104/163/104 116/159/116 115/115/115
f 104/104/104 105/105/105 117/117/117 116/116/116
f 105/105/105 106/106/106 118/118/118 117/117/117
f 106/106/106 107/162/107 119/158/119 118/118/118
f 107/107/107 108/108/108 120/120/120 119/119/119
f 108/108/108 97/98/98 109/110/110 120/120/120
f 109/110/110 110/161/109 122/157/121 121/122/122
f 110/109/109 111/111/111 123/123/123 122/121/121
f 111/111/111 112/112/112 124/124/124 123/123/123
f 112/112/112 113/160/113 125/155/125 124/124/124
f 113/113/113 114/114/114 126/126/126 125/125/125
f 114/114/114 115/115/115 127/127/127 126/126/126
f 115/115/115 116/159/116 128/153/128 127/127/127
f 116/116/116 117/117/117 129/129/129 128/128/128
f 117/117/117 118/118/118 130/130/130 129/129/129
f 118/118/118 119/158/119 131/151/131 130/130/130
f 119/119/119 120/120/120 132/132/132 131/131/131
f 120/120/120 109/110/110 121/122/122 132/132/132
f 2/2/2 1/1/1 133/133/133
f 3/5/5 2/172/2 133/166/133
f 4/7/7 3/5/5 133/166/133
f 5/9/9 4/7/7 133/166/133
f 6/11/11 5/171/9 133/167/133
f 7/13/13 6/11/11 133/167/133
f 8/15/15 7/13/13 133/167/133
f 9/17/17 8/170/15 133/168/133
f 10/19/19 9/17/17 133/168/133
f 11/21/21 10/19/19 133/168/133
f 12/23/23 11/169/21 133/133/133
f 1/1/1 12/23/23 133/133/133
f 134/134/134 135/156/135 136/136/136
f 135/135/135 137/137/137 136/150/136
f 137/137/137 138/138/138 136/150/136
f 138/138/138 139/154/139 136/150/136
f 139/139/139 140/140/140 136/149/136
f 140/140/140 141/141/141 136/149/136
f 141/141/141 142/152/142 136/149/136
f 142/142/142 143/143/143 136/148/136
f 143/143/143 144/144/144 136/148/136
f 144/144/144 145/147/145 136/148/136
f 145/145/145 146/146/146 136/136/136
f 146/146/146 134/134/134 136/136/136
f 121/122/122 122/157/121 135/156/135 134/134/134
f 122/121/121 123/123/123 137/137/137 135/135/135
f 123/123/123 124/124/124 138/138/138 137/137/137
f 124/124/124 125/155/125 139/154/139 138/138/138
f 125/125/125 126/126/126 140/140/140 139/139/139
f 126/126/126 127/127/127 141/141/141 140/140/140
f 127/127/127 128/153/128 142/152/142 141/141/141
f 128/128/128 129/129/129 143/143/143 142/142/142
f 129/129/129 130/130/130 144/144/144 143/143/143
f 130/130/130 131/151/131 145/147/145 144/144/144
f 131/131/131 132/132/132 146/146/146 145/145/145
f 132/132/132 121/122/122 134/134/134 146/146/146
s 2
f 165/213/147 166/190/148 154/191/149 153/215/150
s 3
f 166/190/151 167/193/152 155/194/153 154/191/154
s 4
f 167/193/155 168/195/156 156/196/157 155/194/158
s 5
f 168/195/159 169/197/160 157/198/161 156/196/162
s 6
f 169/197/163 170/199/164 158/200/165 157/198/166
s 7
f 170/199/167 165/189/168 153/192/169 158/200/170
s 2
f 147/217/171 148/202/172 160/203/173 159/216/174
s 3
f 148/202/175 149/205/176 161/206/177 160/203/178
s 4
f 149/205/179 150/207/180 162/208/181 161/206/182
s 5
f 150/207/183 151/209/184 163/210/185 162/208/186
s 6
f 151/209/187 152/211/188 164/212/189 163/210/190
s 7
f 152/211/191 147/201/192 159/204/193 164/212/194
s 2
f 159/216/174 160/203/173 166/190/148 165/213/147
s 3
f 160/203/178 161/206/177 167/193/152 166/190/151
s 4
f 161/206/182 162/208/181 168/195/156 167/193/155
s 5
f 162/208/186 163/210/185 169/197/160 168/195/159
s 6
f 163/210/190 164/212/189 170/199/164 169/197/163
s 7
f 164/212/194 159/204/193 165/189/168 170/199/167
s off
f 154/222/195 155/221/196 156/220/197 157/219/198 158/218/199 153/214/200
